<?xml version="1.0" encoding="UTF-8" standalone="no"?>
<svg
   xmlns:dc="http://purl.org/dc/elements/1.1/"
   xmlns:cc="http://creativecommons.org/ns#"
   xmlns:rdf="http://www.w3.org/1999/02/22-rdf-syntax-ns#"
   xmlns:svg="http://www.w3.org/2000/svg"
   xmlns="http://www.w3.org/2000/svg"
   xmlns:sodipodi="http://sodipodi.sourceforge.net/DTD/sodipodi-0.dtd"
   xmlns:inkscape="http://www.inkscape.org/namespaces/inkscape"
   width="340"
   height="62.896469"
   viewBox="0 0 340 62.896469"
   version="1.1"
   id="svg44"
   sodipodi:docname="logo_with_text.svg"
   inkscape:version="0.92.5 (2060ec1f9f, 2020-04-08)"
   inkscape:export-filename="/home/vietanhdev/logo.png"
   inkscape:export-xdpi="451.556"
   inkscape:export-ydpi="451.556">
  <metadata
     id="metadata50">
    <rdf:RDF>
      <cc:Work
         rdf:about="">
        <dc:format>image/svg+xml</dc:format>
        <dc:type
           rdf:resource="http://purl.org/dc/dcmitype/StillImage" />
        <dc:title></dc:title>
      </cc:Work>
    </rdf:RDF>
  </metadata>
  <defs
     id="defs48" />
  <sodipodi:namedview
     pagecolor="#ffffff"
     bordercolor="#666666"
     borderopacity="1"
     objecttolerance="10"
     gridtolerance="10"
     guidetolerance="10"
     inkscape:pageopacity="0"
     inkscape:pageshadow="2"
     inkscape:window-width="1920"
     inkscape:window-height="1054"
     id="namedview46"
     showgrid="false"
     fit-margin-top="0"
     fit-margin-left="0"
     fit-margin-right="0"
     fit-margin-bottom="0"
     inkscape:zoom="1.2214286"
     inkscape:cx="115.23356"
     inkscape:cy="24.702863"
     inkscape:window-x="1920"
     inkscape:window-y="1"
     inkscape:window-maximized="1"
     inkscape:current-layer="svg44" />
  <path
     d="m 28.087235,18.508239 c -0.596,-4.093 -2.248,-9.7450004 -2.439,-12.4390004 -0.169,-2.382 1.176,-4.08 3.248,-5.022 0.749,-0.34100011 1.628,-0.52900011 2.552,-0.52900011 0.924,0 1.803,0.188 2.552,0.52900011 2.072,0.942 3.417,2.64 3.248,5.022 -0.191,2.694 -1.843,8.3460004 -2.439,12.4390004"
     id="path2"
     inkscape:connector-curvature="0"
     style="fill:#f2f2f2;stroke:#000000;stroke-width:1.03646994" />
  <path
     d="m 22.067235,21.920239 c -2.562,-3.247 -6.819,-7.316 -8.332,-9.553 -1.337,-1.978 -1.022,-4.1220004 0.302,-5.9740004 0.478,-0.67 1.146,-1.272 1.946,-1.734 0.8,-0.462 1.655,-0.739 2.474,-0.818 2.265,-0.22 4.279,0.578 5.324,2.726 1.182,2.429 2.577,8.1500004 4.108,11.9920004"
     id="path4"
     inkscape:connector-curvature="0"
     style="fill:#f2f2f2;stroke:#000000;stroke-width:1.03646994" />
  <path
     d="m 18.508235,34.807239 c -4.093,0.596 -9.745,2.248 -12.439,2.439 -2.382,0.169 -4.08,-1.176 -5.022,-3.248 -0.34100003,-0.749 -0.52900003,-1.628 -0.52900003,-2.552 0,-0.924 0.188,-1.803 0.52900003,-2.552 0.942,-2.072 2.64,-3.417 5.022,-3.248 2.694,0.191 8.346,1.843 12.439,2.439"
     id="path6"
     inkscape:connector-curvature="0"
     style="fill:#f2f2f2;stroke:#000000;stroke-width:1.03646994" />
  <path
     d="m 18.562235,27.887239 c -3.842,-1.53 -9.563,-2.926 -11.992,-4.108 -2.147,-1.045 -2.946,-3.059 -2.726,-5.324 0.08,-0.819 0.356,-1.674 0.818,-2.474 0.462,-0.8 1.064,-1.467 1.734,-1.946 1.852,-1.323 3.995,-1.639 5.974,-0.302 2.238,1.513 6.307,5.769 9.553,8.332"
     id="path8"
     inkscape:connector-curvature="0"
     style="fill:#f2f2f2;stroke:#000000;stroke-width:1.03646994" />
  <path
     d="m 21.923235,40.828239 c -3.247,2.562 -7.316,6.819 -9.553,8.332 -1.978,1.337 -4.122,1.022 -5.974,-0.302 -0.67,-0.479 -1.272,-1.146 -1.734,-1.946 -0.462,-0.8 -0.739,-1.655 -0.818,-2.474 -0.22,-2.265 0.578,-4.279 2.726,-5.324 2.429,-1.182 8.15,-2.577 11.992,-4.108"
     id="path10"
     inkscape:connector-curvature="0"
     style="fill:#f2f2f2;stroke:#000000;stroke-width:1.03646994" />
  <path
     d="m 27.890235,44.335239 c -1.53,3.842 -2.926,9.563 -4.108,11.992 -1.045,2.147 -3.059,2.946 -5.324,2.726 -0.819,-0.08 -1.674,-0.356 -2.474,-0.818 -0.8,-0.462 -1.467,-1.064 -1.946,-1.734 -1.323,-1.852 -1.639,-3.995 -0.302,-5.974 1.512,-2.238 5.769,-6.307 8.332,-9.553"
     id="path12"
     inkscape:connector-curvature="0"
     style="fill:#f2f2f2;stroke:#000000;stroke-width:1.03646994" />
  <path
     d="m 34.810235,44.388239 c 0.596,4.093 2.248,9.745 2.439,12.439 0.169,2.382 -1.176,4.08 -3.248,5.022 -0.749,0.341 -1.628,0.529 -2.552,0.529 -0.924,0 -1.803,-0.188 -2.552,-0.529 -2.072,-0.942 -3.417,-2.64 -3.248,-5.022 0.191,-2.694 1.843,-8.346 2.439,-12.439"
     id="path14"
     inkscape:connector-curvature="0"
     style="fill:#f2f2f2;stroke:#000000;stroke-width:1.03646994" />
  <path
     d="m 40.830235,40.975239 c 2.562,3.247 6.819,7.316 8.332,9.553 1.337,1.978 1.022,4.122 -0.302,5.974 -0.479,0.67 -1.146,1.272 -1.946,1.734 -0.8,0.462 -1.655,0.739 -2.474,0.818 -2.265,0.22 -4.279,-0.578 -5.324,-2.726 -1.182,-2.429 -2.577,-8.15 -4.108,-11.992"
     id="path16"
     inkscape:connector-curvature="0"
     style="fill:#f2f2f2;stroke:#000000;stroke-width:1.03646994" />
  <path
     d="m 44.337235,35.009239 c 3.842,1.53 9.563,2.926 11.992,4.108 2.147,1.045 2.946,3.059 2.726,5.324 -0.08,0.819 -0.356,1.674 -0.818,2.474 -0.462,0.8 -1.064,1.467 -1.734,1.946 -1.852,1.323 -3.995,1.639 -5.974,0.302 -2.238,-1.513 -6.307,-5.769 -9.553,-8.332"
     id="path18"
     inkscape:connector-curvature="0"
     style="fill:#f2f2f2;stroke:#000000;stroke-width:1.03646994" />
  <path
     d="m 44.389235,28.091239 c 4.093,-0.596 9.745,-2.248 12.439,-2.439 2.382,-0.169 4.08,1.176 5.022,3.248 0.341,0.749 0.529,1.628 0.529,2.552 0,0.924 -0.188,1.803 -0.529,2.552 -0.942,2.072 -2.64,3.417 -5.022,3.248 -2.694,-0.191 -8.346,-1.843 -12.439,-2.439"
     id="path20"
     inkscape:connector-curvature="0"
     style="fill:#f2f2f2;stroke:#000000;stroke-width:1.03646994" />
  <path
     d="m 35.008235,18.562239 c 1.53,-3.842 2.926,-9.5630004 4.108,-11.9920004 1.045,-2.147 3.059,-2.946 5.324,-2.726 0.819,0.08 1.674,0.356 2.474,0.818 0.8,0.462 1.467,1.064 1.946,1.734 1.323,1.852 1.639,3.9950004 0.302,5.9740004 -1.512,2.238 -5.769,6.307 -8.332,9.553"
     id="path22"
     inkscape:connector-curvature="0"
     style="fill:#f2f2f2;stroke:#000000;stroke-width:1.03646994" />
  <path
     d="m 40.979235,22.071239 c 3.247,-2.562 7.316,-6.819 9.553,-8.332 1.978,-1.337 4.122,-1.022 5.974,0.302 0.67,0.479 1.272,1.146 1.734,1.946 0.462,0.8 0.739,1.655 0.818,2.474 0.22,2.265 -0.578,4.279 -2.726,5.324 -2.429,1.182 -8.15,2.577 -11.992,4.108"
     id="path24"
     inkscape:connector-curvature="0"
     style="fill:#f2f2f2;stroke:#000000;stroke-width:1.03646994" />
  <path
     d="m 44.698235,31.448239 c 0,7.318 -5.932,13.25 -13.25,13.25 -7.318,0 -13.25,-5.932 -13.25,-13.25 0,-7.318 5.932,-13.25 13.25,-13.25 7.318,0 13.25,5.932 13.25,13.25 z"
     id="path26"
     inkscape:connector-curvature="0"
     style="fill:#ffd800;stroke:#020000;stroke-width:1.24377513" />
  <g
     aria-label="daisykit"
     style="font-style:normal;font-weight:normal;font-size:42.15478516px;line-height:324.94998169;font-family:sans-serif;letter-spacing:0px;word-spacing:0px;fill:#000000;fill-opacity:1;stroke:none;stroke-width:1.58080435"
     id="text826">
    <path
       d="m 91.697512,36.094617 c 5.87036,0 10.773838,-2.762522 13.052918,-5.66317 1.58845,-2.002829 3.66034,-5.110666 3.7294,-10.773837 0.0691,-8.011315 -5.93942,-15.0557465 -18.163579,-15.0557465 -1.243135,0 -7.113495,0.4834414 -8.840072,0.4834414 -2.210017,0 -3.729405,-0.1381261 -5.66317,-0.1381261 -0.690631,0 -0.345315,1.5884503 0.06906,1.7265764 1.726576,0.4834414 1.864702,0.5525045 2.762522,1.5884503 0.483442,0.5525045 0.621568,2.1409545 0.621568,3.4531525 v 18.025458 c -0.06906,1.243135 -0.483442,2.002829 -1.312198,2.831586 -0.966883,0.966882 -1.657514,1.312198 -2.969712,1.657513 -0.345315,0.06906 -0.345315,1.657513 0,1.657513 1.243135,0 4.350973,-0.207189 7.182558,-0.207189 3.660342,0.06906 8.632882,0.414378 9.530702,0.414378 z m -5.663171,-3.1769 c -0.966883,-0.759694 -1.58845,-1.381261 -1.58845,-3.315027 V 9.4362775 c 0,-1.9337656 2.140955,-2.6934592 6.077549,-2.6934592 7.665999,0.069063 12.08603,7.1134947 12.08603,12.4313507 0,6.008485 -1.51938,9.392575 -3.107833,11.119152 -1.312198,1.381261 -3.245963,3.315026 -7.527873,3.315026 -2.969711,0 -4.97254,0.06906 -5.939423,-0.69063 z"
       style="font-style:normal;font-variant:normal;font-weight:normal;font-stretch:normal;font-size:69.06305695px;line-height:1000;font-family:'EB Garamond 12 All SC';-inkscape-font-specification:'EB Garamond 12 All SC';stroke-width:1.58080435"
       id="path879" />
    <path
       d="m 111.93293,36.094617 c 1.8647,0 2.96971,-0.345315 4.90347,-0.345315 2.6244,0 4.07472,0.345315 6.83725,0.345315 0.62156,0 0.62156,-1.519387 0,-1.657513 -0.89782,-0.207189 -2.14096,-0.89782 -2.90065,-2.071892 -0.27625,-0.483441 -0.27625,-1.381261 -0.0691,-2.27908 0.20718,-1.174072 0.27625,-0.828757 1.105,-2.969712 0.27626,-0.621567 0.34532,-0.828757 0.82876,-0.828757 h 9.80696 c 0.96688,0 1.17407,0.06906 1.31219,0.483442 0.69063,1.864702 0.62157,1.243135 0.96689,2.969711 0.20719,0.89782 0.41437,1.933766 -0.13813,2.831586 -0.69063,1.174072 -1.65751,1.657513 -2.76252,1.864702 -0.41438,0.06906 -0.7597,1.657513 -0.0691,1.657513 2.27909,0 4.35098,-0.345315 7.18256,-0.345315 2.6244,0 4.00566,0.345315 6.63006,0.345315 0.82875,0 0.48344,-1.519387 0,-1.657513 -1.17408,-0.276252 -2.27909,-1.105009 -3.10784,-2.002829 -1.24314,-1.312198 -1.8647,-2.348143 -2.41721,-3.936594 -3.24596,-8.632882 -5.31785,-14.91762 -8.63288,-23.9648806 -0.13813,-0.4143783 -0.20719,-0.6215675 -0.48344,-0.6215675 -0.20719,0 -0.41438,0.3453153 -0.96689,0.9668828 -0.41437,0.4834414 -2.48627,2.0028287 -3.10783,2.1409548 -0.0691,0.069063 -0.20719,1.3812611 -0.34532,2.2100178 -0.20719,0.7596936 -0.34531,1.3812607 -0.48344,1.7956397 -3.31503,8.080377 -4.69629,11.464467 -8.01131,18.508899 -0.62157,1.312198 -1.10501,2.071892 -2.14096,2.900648 -1.38126,1.105009 -2.48627,1.519388 -3.93659,2.002829 -0.41438,0.138126 -0.55251,1.657513 0,1.657513 z m 16.09169,-23.481439 c 0.41438,-1.035946 0.41438,-1.035946 0.82876,0 0.75969,2.140955 3.31502,9.25445 3.79846,11.119152 0.20719,0.690631 0.13813,0.690631 -0.5525,0.690631 h -8.08038 c -0.82875,0 -1.17407,-0.06906 -0.89782,-0.690631 1.51939,-3.315026 3.72941,-8.218504 4.90348,-11.119152 z"
       style="font-style:normal;font-variant:normal;font-weight:normal;font-stretch:normal;font-size:69.06305695px;line-height:1000;font-family:'EB Garamond 12 All SC';-inkscape-font-specification:'EB Garamond 12 All SC';stroke-width:1.58080435"
       id="path881" />
    <path
       d="m 161.72728,9.8506558 c 0,-0.8287567 0.41438,-1.4503242 0.96688,-1.8647025 0.96689,-0.8978198 2.00283,-1.243135 3.17691,-1.7265764 0.48344,-0.2071892 0.62156,-1.5884504 0,-1.5884504 -2.83159,0 -4.00566,0.1381262 -6.561,0.1381262 -2.76252,0 -3.93659,-0.1381262 -6.9063,-0.1381262 -0.41438,0 -0.48344,1.3812612 0,1.5884504 1.17407,0.4834414 2.00283,0.8287566 3.03877,1.6575133 0.62157,0.6215675 1.10501,1.0359459 1.10501,1.9337656 V 30.224258 c 0,1.035945 -0.13812,1.864702 -0.89782,2.555333 -1.24313,1.105009 -2.27908,1.381261 -3.7294,1.657513 -0.82876,0.207189 -0.55251,1.657513 0,1.657513 2.62439,0 4.4891,-0.345315 7.38974,-0.345315 2.69346,0 4.28191,0.345315 7.04444,0.345315 0.82875,0 0.82875,-1.450324 0,-1.657513 -1.45033,-0.276252 -2.55534,-0.552504 -3.66035,-1.657513 -0.82875,-0.690631 -0.96688,-1.519388 -0.96688,-2.555333 z"
       style="font-style:normal;font-variant:normal;font-weight:normal;font-stretch:normal;font-size:69.06305695px;line-height:1000;font-family:'EB Garamond 12 All SC';-inkscape-font-specification:'EB Garamond 12 All SC';stroke-width:1.58080435"
       id="path883" />
    <path
       d="m 181.4793,34.229915 c -5.45598,0 -7.666,-6.699117 -8.21851,-6.699117 -0.5525,0 -1.38126,0.345316 -1.38126,0.759694 0.0691,1.726576 1.03595,5.455982 1.58845,6.56099 0.13813,0.20719 0,0.414379 0.7597,0.552505 1.72657,0.345315 3.7294,1.243135 7.45881,1.243135 7.80412,0 10.98102,-5.248792 10.98102,-9.047261 0,-4.834414 -4.90348,-8.287566 -7.59693,-10.014143 -2.55534,-1.657513 -6.49193,-3.798468 -6.49193,-6.837242 0,-2.6243966 1.51939,-4.0747208 4.76535,-4.0747208 1.72658,0 5.11067,0.5525045 6.3538,4.9034768 0.13813,0.690631 1.38126,1.174072 1.65751,1.174072 0.27626,0 0.55251,-0.759693 0.55251,-1.174072 0,-1.6575131 -0.41438,-3.4531526 -0.7597,-5.110666 -0.0691,-0.4143783 -0.41437,-0.8978197 -0.89782,-1.0359458 -1.03594,-0.1381261 -2.96971,-1.174072 -6.28473,-1.174072 -7.1135,0 -10.49759,5.2487923 -10.49759,8.1494408 0,3.798468 2.96971,7.182558 6.56099,9.461639 4.07472,2.624396 6.83725,4.07472 6.83725,7.182558 0,2.900648 -1.10501,5.179729 -5.38692,5.179729 z"
       style="font-style:normal;font-variant:normal;font-weight:normal;font-stretch:normal;font-size:69.06305695px;line-height:1000;font-family:'EB Garamond 12 All SC';-inkscape-font-specification:'EB Garamond 12 All SC';stroke-width:1.58080435"
       id="path885" />
    <path
       d="m 197.63999,6.466566 c 2.76252,0.1381261 4.69629,3.5222159 5.52505,4.627225 2.48627,3.453153 3.31502,4.834414 5.38691,8.563819 0.20719,0.414378 0.82876,1.035946 0.82876,2.900648 v 7.666 c 0,0.966882 -0.20719,1.795639 -0.89782,2.417207 -1.17407,1.105009 -2.21002,1.381261 -3.66034,1.657513 -0.82876,0.207189 -0.5525,1.864703 0,1.864703 2.55533,0 4.4891,-0.414379 7.38975,-0.414379 2.62439,0 4.14378,0.414379 6.83724,0.414379 0.75969,0 0.82876,-1.657514 0,-1.864703 -1.45032,-0.276252 -2.48627,-0.552504 -3.59128,-1.657513 -0.75969,-0.621568 -0.89782,-1.450325 -0.89782,-2.417207 -0.0691,-2.071892 0.0691,-5.386919 0,-7.666 -0.0691,-1.795639 0.0691,-1.58845 1.3122,-3.660342 2.34814,-3.936594 3.03877,-4.281909 5.24879,-7.942251 0.96688,-1.4503245 3.10784,-4.4200359 5.87036,-4.8344143 0.34532,-0.069063 0.55251,-1.4503242 0,-1.4503242 -2.14095,0 -2.96971,0.069063 -5.11067,0.069063 h -4.97254 c -0.69063,0 -0.69063,1.5884503 -0.13812,1.6575134 1.79564,0.2762522 3.31503,1.4503242 2.48627,3.1078375 -1.17407,2.2790805 -2.96971,4.9034775 -4.55816,7.1134945 -1.65752,2.210018 -0.96689,2.348144 -2.55534,0 -1.8647,-2.762522 -2.34814,-3.038774 -4.83441,-7.3206836 -1.03595,-1.8647026 -0.13813,-2.6934593 1.8647,-2.9697115 0.48344,-0.069063 0.48344,-1.5193872 0,-1.5193872 -2.69346,0 -3.66034,0.1381261 -5.93942,0.1381261 -2.27908,0 -3.59128,-0.1381261 -5.8013,-0.1381261 -0.69063,0 -0.34531,1.5884503 0.20719,1.6575133 z"
       style="font-style:normal;font-variant:normal;font-weight:normal;font-stretch:normal;font-size:69.06305695px;line-height:1000;font-family:'EB Garamond 12 All SC';-inkscape-font-specification:'EB Garamond 12 All SC';stroke-width:1.58080435"
       id="path887" />
    <path
       d="m 258.48451,31.329267 c -4.4891,-5.110667 -6.3538,-7.735063 -10.98102,-12.983855 -0.27625,-0.345315 -0.48344,-0.552505 -0.20719,-0.828757 3.03877,-3.315027 5.11066,-5.248792 8.42569,-8.1494406 2.14096,-1.9337656 3.10784,-2.48627 6.07755,-2.8315853 0.27625,-0.069063 0.48344,-2.0028287 0,-2.0028287 -2.6244,0.2762523 -5.31786,0.4143784 -6.07755,0.4143784 -1.72658,0 -3.03877,0.069063 -5.17973,-0.1381261 -0.5525,0 -0.69063,2.0718917 -0.13812,2.2100178 1.58845,0.3453153 2.27908,1.5884503 1.58845,2.3481439 0,0 -7.1135,7.3206836 -9.11633,9.1163236 -0.34531,0.345315 -0.69063,0.483441 -1.03594,0.483441 -0.20719,0 -0.20719,-0.345315 -0.20719,-0.552504 0,-2.969712 0.0691,-4.627225 0.20719,-8.4256931 0,-0.8978197 0.27625,-1.8647025 0.75969,-2.2790809 0.96688,-0.8287566 1.51939,-1.0359458 2.69346,-1.1740719 0.48344,-0.069063 0.5525,-1.7265764 0,-1.7265764 -2.6244,0 -3.66034,0.2071891 -5.93942,0.2071891 -2.69346,0 -4.00566,-0.2071891 -6.76818,-0.2071891 -0.41438,0 -0.41438,1.5884503 0,1.7265764 1.17407,0.2762522 1.8647,0.7596936 2.83158,1.5884503 0.55251,0.6215675 1.03595,1.0359458 1.03595,1.8647025 V 30.155195 c 0,1.035945 -0.13813,1.795639 -0.82876,2.48627 -1.10501,1.105009 -2.14095,1.519387 -3.45315,1.864702 -0.82876,0.138126 -0.55251,1.657514 0,1.657514 2.41721,0 4.35097,-0.276253 7.18256,-0.276253 2.27908,0 3.38409,0.276253 5.93942,0.276253 0.75969,0 0.75969,-1.519388 0,-1.657514 -1.38126,-0.345315 -1.93377,-0.759693 -2.83159,-1.657513 -0.34531,-0.345316 -0.62156,-1.588451 -0.62156,-2.693459 -0.13813,-3.867532 -0.20719,-5.732234 -0.20719,-8.771009 0,-0.345315 -0.0691,-1.035946 0.20719,-1.035946 0.20719,0 0.69063,0.483442 1.03594,0.828757 3.66034,4.212847 6.83725,8.080378 9.32352,10.773837 0.69063,0.690631 0.75969,0.966883 0.75969,1.450324 0,0.621568 -1.65751,0.759694 -2.83159,1.105009 -0.41437,0.06906 -0.41437,1.657514 0.13813,1.657514 1.03595,0 5.17973,-0.276253 8.49476,-0.276253 2.27908,0 4.00565,0.483442 5.38691,0.483442 0.69063,0 0.41438,-1.588451 0,-1.726577 -2.69345,-0.759693 -3.66034,-1.035946 -5.66317,-3.315026 z"
       style="font-style:normal;font-variant:normal;font-weight:normal;font-stretch:normal;font-size:69.06305695px;line-height:1000;font-family:'EB Garamond 12 All SC';-inkscape-font-specification:'EB Garamond 12 All SC';stroke-width:1.58080435"
       id="path889" />
    <path
       d="m 279.89394,9.8506558 c 0,-0.8287567 0.41438,-1.4503242 0.96688,-1.8647025 0.96688,-0.8978198 2.00283,-1.243135 3.1769,-1.7265764 0.48344,-0.2071892 0.62157,-1.5884504 0,-1.5884504 -2.83158,0 -4.00566,0.1381262 -6.56099,0.1381262 -2.76252,0 -3.93659,-0.1381262 -6.9063,-0.1381262 -0.41438,0 -0.48345,1.3812612 0,1.5884504 1.17407,0.4834414 2.00282,0.8287566 3.03877,1.6575133 0.62157,0.6215675 1.10501,1.0359459 1.10501,1.9337656 V 30.224258 c 0,1.035945 -0.13813,1.864702 -0.89782,2.555333 -1.24314,1.105009 -2.27908,1.381261 -3.72941,1.657513 -0.82875,0.207189 -0.5525,1.657513 0,1.657513 2.6244,0 4.4891,-0.345315 7.38975,-0.345315 2.69346,0 4.28191,0.345315 7.04443,0.345315 0.82876,0 0.82876,-1.450324 0,-1.657513 -1.45032,-0.276252 -2.55533,-0.552504 -3.66034,-1.657513 -0.82876,-0.690631 -0.96688,-1.519388 -0.96688,-2.555333 z"
       style="font-style:normal;font-variant:normal;font-weight:normal;font-stretch:normal;font-size:69.06305695px;line-height:1000;font-family:'EB Garamond 12 All SC';-inkscape-font-specification:'EB Garamond 12 All SC';stroke-width:1.58080435"
       id="path891" />
    <path
       d="m 314.01107,7.8478272 c 3.03877,0 2.96971,1.312198 3.24596,2.4862698 0.13813,0.414379 0.55251,1.519387 1.10501,1.588451 0.55251,0.06906 0.7597,-0.690631 0.82876,-1.312199 0.20719,-2.0718913 0.48344,-5.1797288 1.17407,-6.4919269 0.20719,-0.4143784 -0.27625,-0.8287567 -0.48344,-0.8287567 -0.27625,0 -1.10501,0.2762522 -1.65751,0.8287567 -0.7597,0.8978197 -2.0719,0.8978197 -3.52222,0.8978197 h -18.71609 c -1.24313,0 -2.69346,-0.2762522 -3.03877,-0.9668828 -0.27626,-0.4834414 -1.03595,-1.4503242 -1.3122,-1.4503242 -0.20719,0 -0.7597,0 -0.89782,1.0359459 -0.27625,2.0028286 -0.27625,4.4890987 -1.17407,6.2847382 -0.27626,0.6215671 -0.62157,1.7956391 0.13812,1.7956391 0.69063,0 1.93377,-1.381261 2.21002,-1.9337652 0.69063,-1.174072 2.00283,-1.9337656 3.45315,-1.9337656 2.96972,0 3.86753,-0.069063 5.11067,0.1381261 0.75969,0.1381261 0.82876,1.243135 0.82876,2.0718917 v 20.235476 c 0,1.035946 -0.20719,1.795639 -0.89782,2.417207 -1.17408,1.105009 -2.14096,1.381261 -3.59128,1.657513 -0.7597,0.207189 -0.55251,1.726576 0,1.726576 2.55533,0 4.14378,-0.483441 6.9063,-0.483441 2.83159,0 4.55817,0.483441 7.25162,0.483441 0.69064,0 0.7597,-1.519387 0,-1.726576 -1.45032,-0.276252 -2.48627,-0.552504 -3.59127,-1.657513 -0.7597,-0.621568 -0.89782,-1.381261 -0.89782,-2.417207 V 10.057845 c 0,-0.8978198 0.13812,-2.0028287 0.75969,-2.0718917 0.82876,-0.069063 4.35097,-0.1381261 6.76818,-0.1381261 z"
       style="font-style:normal;font-variant:normal;font-weight:normal;font-stretch:normal;font-size:69.06305695px;line-height:1000;font-family:'EB Garamond 12 All SC';-inkscape-font-specification:'EB Garamond 12 All SC';stroke-width:1.58080435"
       id="path893" />
  </g>
  <g
     aria-label="Easy AI Toolkit for Everyone"
     style="font-style:normal;font-weight:normal;font-size:26.66666603px;line-height:904.04998779;font-family:sans-serif;letter-spacing:0px;word-spacing:0px;fill:#000000;fill-opacity:1;stroke:none"
     id="text828">
    <path
       d="m 76.334953,42.738691 h 8.604167 v 1.549479 h -6.763021 v 4.028646 h 6.480469 v 1.549479 h -6.480469 v 4.930989 h 6.927083 v 1.54948 h -8.768229 z"
       style="font-size:18.66666603px"
       id="path830" />
    <path
       d="m 92.69563,51.215253 q -2.032552,0 -2.816406,0.464844 -0.783854,0.464844 -0.783854,1.585938 0,0.893229 0.583333,1.421875 0.592448,0.519531 1.604166,0.519531 1.394532,0 2.233073,-0.984375 0.847657,-0.99349 0.847657,-2.634115 v -0.373698 z m 3.345052,-0.692708 v 5.824219 h -1.677083 v -1.54948 q -0.574219,0.929688 -1.43099,1.376303 -0.856771,0.4375 -2.096354,0.4375 -1.567708,0 -2.497396,-0.875 -0.920573,-0.884115 -0.920573,-2.360677 0,-1.722657 1.148438,-2.597657 1.157552,-0.875 3.445312,-0.875 h 2.351563 v -0.164062 q 0,-1.157552 -0.765625,-1.786458 -0.756511,-0.638021 -2.132813,-0.638021 -0.875,0 -1.704427,0.209635 -0.829427,0.209636 -1.595052,0.628906 v -1.549479 q 0.920573,-0.355468 1.786458,-0.528645 0.865886,-0.182292 1.686198,-0.182292 2.214844,0 3.308594,1.148437 1.09375,1.148438 1.09375,3.481771 z"
       style="font-size:18.66666603px"
       id="path832" />
    <path
       d="m 106.00292,46.439212 v 1.585937 q -0.71094,-0.364583 -1.47656,-0.546875 -0.76563,-0.182291 -1.58594,-0.182291 -1.2487,0 -1.8776,0.382812 -0.61979,0.382813 -0.61979,1.148438 0,0.583333 0.44661,0.920573 0.44661,0.328124 1.79557,0.628906 l 0.57422,0.127604 q 1.78646,0.382812 2.53386,1.084635 0.75651,0.692709 0.75651,1.941406 0,1.421875 -1.13021,2.251302 -1.1211,0.829428 -3.08985,0.829428 -0.82031,0 -1.71354,-0.164063 -0.884112,-0.154948 -1.868487,-0.473958 v -1.731771 q 0.929688,0.483073 1.832027,0.729167 0.90235,0.236979 1.78646,0.236979 1.1849,0 1.82292,-0.401042 0.63802,-0.410156 0.63802,-1.148437 0,-0.683594 -0.46484,-1.048177 -0.45573,-0.364584 -2.01433,-0.701823 l -0.58333,-0.136719 q -1.55859,-0.328125 -2.251302,-1.002604 -0.692708,-0.683594 -0.692708,-1.86849 0,-1.440104 1.020833,-2.223958 1.020837,-0.783854 2.898437,-0.783854 0.92969,0 1.75,0.136719 0.82031,0.136718 1.51302,0.410156 z"
       style="font-size:18.66666603px"
       id="path834" />
    <path
       d="m 113.46776,57.29468 q -0.71093,1.822917 -1.38541,2.378906 -0.67448,0.55599 -1.80469,0.55599 h -1.33984 V 58.82593 h 0.98437 q 0.69271,0 1.07552,-0.328125 0.38281,-0.328125 0.84766,-1.549479 l 0.30078,-0.765625 -4.12891,-10.04427 h 1.77735 l 3.1901,7.984374 3.19011,-7.984374 h 1.77734 z"
       style="font-size:18.66666603px"
       id="path836" />
    <path
       d="m 130.82193,44.552493 -2.49739,6.772135 h 5.0039 z m -1.03906,-1.813802 h 2.08724 l 5.1862,13.608073 h -1.91407 l -1.23958,-3.490886 h -6.13411 l -1.23959,3.490886 h -1.9414 z"
       style="font-size:18.66666603px"
       id="path838" />
    <path
       d="m 139.04329,42.738691 h 1.84114 v 13.608073 h -1.84114 z"
       style="font-size:18.66666603px"
       id="path840" />
    <path
       d="m 148.59537,42.738691 h 11.51172 v 1.549479 h -4.83073 V 56.346764 H 153.4261 V 44.28817 h -4.83073 z"
       style="font-size:18.66666603px"
       id="path842" />
    <path
       d="m 162.59537,47.314212 q -1.34896,0 -2.13282,1.057291 -0.78385,1.048178 -0.78385,2.880209 0,1.832031 0.77474,2.889323 0.78385,1.048177 2.14193,1.048177 1.33984,0 2.1237,-1.057292 0.78385,-1.057292 0.78385,-2.880208 0,-1.813802 -0.78385,-2.871094 -0.78386,-1.066406 -2.1237,-1.066406 z m 0,-1.421875 q 2.1875,0 3.4362,1.421875 1.24869,1.421875 1.24869,3.9375 0,2.50651 -1.24869,3.9375 -1.2487,1.421875 -3.4362,1.421875 -2.19662,0 -3.44532,-1.421875 -1.23958,-1.43099 -1.23958,-3.9375 0,-2.515625 1.23958,-3.9375 1.2487,-1.421875 3.44532,-1.421875 z"
       style="font-size:18.66666603px"
       id="path844" />
    <path
       d="m 174.01594,47.314212 q -1.34896,0 -2.13281,1.057291 -0.78386,1.048178 -0.78386,2.880209 0,1.832031 0.77474,2.889323 0.78385,1.048177 2.14193,1.048177 1.33984,0 2.1237,-1.057292 0.78385,-1.057292 0.78385,-2.880208 0,-1.813802 -0.78385,-2.871094 -0.78386,-1.066406 -2.1237,-1.066406 z m 0,-1.421875 q 2.1875,0 3.4362,1.421875 1.24869,1.421875 1.24869,3.9375 0,2.50651 -1.24869,3.9375 -1.2487,1.421875 -3.4362,1.421875 -2.19662,0 -3.44531,-1.421875 -1.23959,-1.43099 -1.23959,-3.9375 0,-2.515625 1.23959,-3.9375 1.24869,-1.421875 3.44531,-1.421875 z"
       style="font-size:18.66666603px"
       id="path846" />
    <path
       d="m 181.48079,42.164472 h 1.67708 v 14.182292 h -1.67708 z"
       style="font-size:18.66666603px"
       id="path848" />
    <path
       d="m 186.60318,42.164472 h 1.6862 v 8.376302 l 5.0039,-4.402343 h 2.14193 l -5.41406,4.776041 5.64193,5.432292 h -2.1875 l -5.1862,-4.985677 v 4.985677 h -1.6862 z"
       style="font-size:18.66666603px"
       id="path850" />
    <path
       d="m 197.47688,46.138431 h 1.67708 v 10.208333 h -1.67708 z m 0,-3.973959 h 1.67708 v 2.123698 h -1.67708 z"
       style="font-size:18.66666603px"
       id="path852" />
    <path
       d="m 204.32193,43.239993 v 2.898438 h 3.45443 v 1.303385 h -3.45443 v 5.541666 q 0,1.248698 0.33724,1.604167 0.34635,0.355469 1.39453,0.355469 h 1.72266 v 1.403646 h -1.72266 q -1.94141,0 -2.67969,-0.720052 -0.73828,-0.729167 -0.73828,-2.64323 v -5.541666 h -1.23047 v -1.303385 h 1.23047 v -2.898438 z"
       style="font-size:18.66666603px"
       id="path854" />
    <path
       d="m 221.08365,42.164472 v 1.394532 h -1.60417 q -0.90234,0 -1.25781,0.364583 -0.34636,0.364583 -0.34636,1.3125 v 0.902344 h 2.76172 v 1.303385 h -2.76172 v 8.904948 h -1.6862 v -8.904948 h -1.60416 v -1.303385 h 1.60416 v -0.710938 q 0,-1.704427 0.79297,-2.479166 0.79297,-0.783855 2.51563,-0.783855 z"
       style="font-size:18.66666603px"
       id="path856" />
    <path
       d="m 226.44302,47.314212 q -1.34896,0 -2.13282,1.057291 -0.78385,1.048178 -0.78385,2.880209 0,1.832031 0.77474,2.889323 0.78385,1.048177 2.14193,1.048177 1.33984,0 2.12369,-1.057292 0.78386,-1.057292 0.78386,-2.880208 0,-1.813802 -0.78386,-2.871094 -0.78385,-1.066406 -2.12369,-1.066406 z m 0,-1.421875 q 2.1875,0 3.43619,1.421875 1.2487,1.421875 1.2487,3.9375 0,2.50651 -1.2487,3.9375 -1.24869,1.421875 -3.43619,1.421875 -2.19662,0 -3.44532,-1.421875 -1.23958,-1.43099 -1.23958,-3.9375 0,-2.515625 1.23958,-3.9375 1.2487,-1.421875 3.44532,-1.421875 z"
       style="font-size:18.66666603px"
       id="path858" />
    <path
       d="m 239.82323,47.706139 q -0.28255,-0.164063 -0.61979,-0.236979 -0.32813,-0.08203 -0.72917,-0.08203 -1.42187,0 -2.1875,0.929688 -0.75651,0.920573 -0.75651,2.652344 v 5.377604 h -1.6862 V 46.138431 h 1.6862 v 1.585937 q 0.52865,-0.929687 1.3763,-1.376302 0.84766,-0.455729 2.0599,-0.455729 0.17318,0 0.38281,0.02734 0.20964,0.01823 0.46484,0.0638 z"
       style="font-size:18.66666603px"
       id="path860" />
    <path
       d="m 247.58886,42.738691 h 8.60417 v 1.549479 h -6.76302 v 4.028646 h 6.48046 v 1.549479 h -6.48046 v 4.930989 h 6.92708 v 1.54948 h -8.76823 z"
       style="font-size:18.66666603px"
       id="path862" />
    <path
       d="m 258.10708,46.138431 h 1.77735 l 3.1901,8.567708 3.19011,-8.567708 h 1.77734 l -3.82813,10.208333 h -2.27864 z"
       style="font-size:18.66666603px"
       id="path864" />
    <path
       d="m 279.08885,50.823326 v 0.820313 h -7.71093 q 0.10937,1.731771 1.03906,2.643229 0.9388,0.902344 2.60677,0.902344 0.96615,0 1.86849,-0.23698 0.91146,-0.236979 1.80469,-0.710937 v 1.585937 q -0.90235,0.382813 -1.85026,0.583334 -0.94792,0.200521 -1.92318,0.200521 -2.44271,0 -3.8737,-1.421875 -1.42187,-1.421875 -1.42187,-3.846354 0,-2.506511 1.34896,-3.973959 1.35807,-1.476562 3.65494,-1.476562 2.0599,0 3.25391,1.330729 1.20312,1.321615 1.20312,3.60026 z m -1.67708,-0.492187 q -0.0182,-1.376302 -0.77474,-2.196615 -0.74739,-0.820312 -1.98698,-0.820312 -1.40364,0 -2.2513,0.792969 -0.83854,0.792968 -0.96615,2.233072 z"
       style="font-size:18.66666603px"
       id="path866" />
    <path
       d="m 287.75682,47.706139 q -0.28255,-0.164063 -0.61979,-0.236979 -0.32812,-0.08203 -0.72917,-0.08203 -1.42187,0 -2.1875,0.929688 -0.75651,0.920573 -0.75651,2.652344 v 5.377604 h -1.68619 V 46.138431 h 1.68619 v 1.585937 q 0.52865,-0.929687 1.37631,-1.376302 0.84765,-0.455729 2.05989,-0.455729 0.17318,0 0.38281,0.02734 0.20964,0.01823 0.46485,0.0638 z"
       style="font-size:18.66666603px"
       id="path868" />
    <path
       d="m 293.76334,57.29468 q -0.71094,1.822917 -1.38542,2.378906 -0.67448,0.55599 -1.80469,0.55599 h -1.33984 V 58.82593 h 0.98438 q 0.6927,0 1.07552,-0.328125 0.38281,-0.328125 0.84765,-1.549479 l 0.30078,-0.765625 -4.1289,-10.04427 h 1.77734 l 3.19011,7.984374 3.1901,-7.984374 h 1.77734 z"
       style="font-size:18.66666603px"
       id="path870" />
    <path
       d="m 304.51855,47.314212 q -1.34896,0 -2.13282,1.057291 -0.78385,1.048178 -0.78385,2.880209 0,1.832031 0.77474,2.889323 0.78385,1.048177 2.14193,1.048177 1.33984,0 2.12369,-1.057292 0.78386,-1.057292 0.78386,-2.880208 0,-1.813802 -0.78386,-2.871094 -0.78385,-1.066406 -2.12369,-1.066406 z m 0,-1.421875 q 2.1875,0 3.43619,1.421875 1.2487,1.421875 1.2487,3.9375 0,2.50651 -1.2487,3.9375 -1.24869,1.421875 -3.43619,1.421875 -2.19662,0 -3.44532,-1.421875 -1.23958,-1.43099 -1.23958,-3.9375 0,-2.515625 1.23958,-3.9375 1.2487,-1.421875 3.44532,-1.421875 z"
       style="font-size:18.66666603px"
       id="path872" />
    <path
       d="m 320.46906,50.185305 v 6.161459 h -1.67709 v -6.106771 q 0,-1.449219 -0.5651,-2.169271 -0.5651,-0.720052 -1.69531,-0.720052 -1.35808,0 -2.14193,0.865886 -0.78385,0.865885 -0.78385,2.360677 v 5.769531 h -1.6862 V 46.138431 h 1.6862 v 1.585937 q 0.60156,-0.920573 1.41276,-1.376302 0.82031,-0.455729 1.88672,-0.455729 1.75911,0 2.66145,1.09375 0.90235,1.084635 0.90235,3.199218 z"
       style="font-size:18.66666603px"
       id="path874" />
    <path
       d="m 332.54589,50.823326 v 0.820313 h -7.71094 q 0.10937,1.731771 1.03906,2.643229 0.9388,0.902344 2.60677,0.902344 0.96615,0 1.86849,-0.23698 0.91146,-0.236979 1.80469,-0.710937 v 1.585937 q -0.90235,0.382813 -1.85026,0.583334 -0.94792,0.200521 -1.92318,0.200521 -2.44271,0 -3.8737,-1.421875 -1.42187,-1.421875 -1.42187,-3.846354 0,-2.506511 1.34896,-3.973959 1.35807,-1.476562 3.65494,-1.476562 2.0599,0 3.25391,1.330729 1.20313,1.321615 1.20313,3.60026 z m -1.67709,-0.492187 q -0.0182,-1.376302 -0.77474,-2.196615 -0.74739,-0.820312 -1.98698,-0.820312 -1.40364,0 -2.2513,0.792969 -0.83854,0.792968 -0.96614,2.233072 z"
       style="font-size:18.66666603px"
       id="path876" />
  </g>
</svg>
