<svg xmlns="http://www.w3.org/2000/svg"
    width="280" 
    height="64" 
    viewBox="0 0 280 64" >
  <path
      d="m28.087,18.508c-0.596,-4.093 -2.248,-9.745 -2.439,-12.439 -0.169,-2.382 1.176,-4.08 3.248,-5.022 0.749,-0.341 1.628,-0.529 2.552,-0.529 0.924,0 1.803,0.188 2.552,0.529 2.072,0.942 3.417,2.64 3.248,5.022 -0.191,2.694 -1.843,8.346 -2.439,12.439"
      stroke-width="1.0364699"
      fill="#f2f2f2"
      stroke="#000000"/>
  <path
      d="m22.067,21.92c-2.562,-3.247 -6.819,-7.316 -8.332,-9.553 -1.337,-1.978 -1.022,-4.122 0.302,-5.974 0.478,-0.67 1.146,-1.272 1.946,-1.734 0.8,-0.462 1.655,-0.739 2.474,-0.818 2.265,-0.22 4.279,0.578 5.324,2.726 1.182,2.429 2.577,8.15 4.108,11.992"
      stroke-width="1.0364699"
      fill="#f2f2f2"
      stroke="#000000"/>
  <path
      d="m18.508,34.807c-4.093,0.596 -9.745,2.248 -12.439,2.439 -2.382,0.169 -4.08,-1.176 -5.022,-3.248 -0.341,-0.749 -0.529,-1.628 -0.529,-2.552 0,-0.924 0.188,-1.803 0.529,-2.552 0.942,-2.072 2.64,-3.417 5.022,-3.248 2.694,0.191 8.346,1.843 12.439,2.439"
      stroke-width="1.0364699"
      fill="#f2f2f2"
      stroke="#000000"/>
  <path
      d="m18.562,27.887c-3.842,-1.53 -9.563,-2.926 -11.992,-4.108 -2.147,-1.045 -2.946,-3.059 -2.726,-5.324 0.08,-0.819 0.356,-1.674 0.818,-2.474 0.462,-0.8 1.064,-1.467 1.734,-1.946 1.852,-1.323 3.995,-1.639 5.974,-0.302 2.238,1.513 6.307,5.769 9.553,8.332"
      stroke-width="1.0364699"
      fill="#f2f2f2"
      stroke="#000000"/>
  <path
      d="m21.923,40.828c-3.247,2.562 -7.316,6.819 -9.553,8.332 -1.978,1.337 -4.122,1.022 -5.974,-0.302 -0.67,-0.479 -1.272,-1.146 -1.734,-1.946 -0.462,-0.8 -0.739,-1.655 -0.818,-2.474 -0.22,-2.265 0.578,-4.279 2.726,-5.324 2.429,-1.182 8.15,-2.577 11.992,-4.108"
      stroke-width="1.0364699"
      fill="#f2f2f2"
      stroke="#000000"/>
  <path
      d="m27.89,44.335c-1.53,3.842 -2.926,9.563 -4.108,11.992 -1.045,2.147 -3.059,2.946 -5.324,2.726 -0.819,-0.08 -1.674,-0.356 -2.474,-0.818 -0.8,-0.462 -1.467,-1.064 -1.946,-1.734 -1.323,-1.852 -1.639,-3.995 -0.302,-5.974 1.512,-2.238 5.769,-6.307 8.332,-9.553"
      stroke-width="1.0364699"
      fill="#f2f2f2"
      stroke="#000000"/>
  <path
      d="m34.81,44.388c0.596,4.093 2.248,9.745 2.439,12.439 0.169,2.382 -1.176,4.08 -3.248,5.022 -0.749,0.341 -1.628,0.529 -2.552,0.529 -0.924,0 -1.803,-0.188 -2.552,-0.529 -2.072,-0.942 -3.417,-2.64 -3.248,-5.022 0.191,-2.694 1.843,-8.346 2.439,-12.439"
      stroke-width="1.0364699"
      fill="#f2f2f2"
      stroke="#000000"/>
  <path
      d="m40.83,40.975c2.562,3.247 6.819,7.316 8.332,9.553 1.337,1.978 1.022,4.122 -0.302,5.974 -0.479,0.67 -1.146,1.272 -1.946,1.734 -0.8,0.462 -1.655,0.739 -2.474,0.818 -2.265,0.22 -4.279,-0.578 -5.324,-2.726 -1.182,-2.429 -2.577,-8.15 -4.108,-11.992"
      stroke-width="1.0364699"
      fill="#f2f2f2"
      stroke="#000000"/>
  <path
      d="m44.337,35.009c3.842,1.53 9.563,2.926 11.992,4.108 2.147,1.045 2.946,3.059 2.726,5.324 -0.08,0.819 -0.356,1.674 -0.818,2.474 -0.462,0.8 -1.064,1.467 -1.734,1.946 -1.852,1.323 -3.995,1.639 -5.974,0.302 -2.238,-1.513 -6.307,-5.769 -9.553,-8.332"
      stroke-width="1.0364699"
      fill="#f2f2f2"
      stroke="#000000"/>
  <path
      d="m44.389,28.091c4.093,-0.596 9.745,-2.248 12.439,-2.439 2.382,-0.169 4.08,1.176 5.022,3.248 0.341,0.749 0.529,1.628 0.529,2.552 0,0.924 -0.188,1.803 -0.529,2.552 -0.942,2.072 -2.64,3.417 -5.022,3.248 -2.694,-0.191 -8.346,-1.843 -12.439,-2.439"
      stroke-width="1.0364699"
      fill="#f2f2f2"
      stroke="#000000"/>
  <path
      d="m35.008,18.562c1.53,-3.842 2.926,-9.563 4.108,-11.992 1.045,-2.147 3.059,-2.946 5.324,-2.726 0.819,0.08 1.674,0.356 2.474,0.818 0.8,0.462 1.467,1.064 1.946,1.734 1.323,1.852 1.639,3.995 0.302,5.974 -1.512,2.238 -5.769,6.307 -8.332,9.553"
      stroke-width="1.0364699"
      fill="#f2f2f2"
      stroke="#000000"/>
  <path
      d="m40.979,22.071c3.247,-2.562 7.316,-6.819 9.553,-8.332 1.978,-1.337 4.122,-1.022 5.974,0.302 0.67,0.479 1.272,1.146 1.734,1.946 0.462,0.8 0.739,1.655 0.818,2.474 0.22,2.265 -0.578,4.279 -2.726,5.324 -2.429,1.182 -8.15,2.577 -11.992,4.108"
      stroke-width="1.0364699"
      fill="#f2f2f2"
      stroke="#000000"/>
  <path
      d="m44.698,31.448c0,7.318 -5.932,13.25 -13.25,13.25 -7.318,0 -13.25,-5.932 -13.25,-13.25 0,-7.318 5.932,-13.25 13.25,-13.25 7.318,0 13.25,5.932 13.25,13.25z"
      stroke-width="1.2437751"
      fill="#ffd800"
      stroke="#020000"/>
  <path
      d="m76.807,52.185q-1.111,0 -1.868,-0.739 -0.757,-0.739 -0.757,-1.824l0,-33.368q0,-1.134 0.757,-1.824 0.757,-0.739 1.868,-0.739l9.138,0q5.705,0 10.148,2.464 4.443,2.464 6.917,6.851 2.474,4.337 2.474,9.907 0,5.57 -2.474,9.956 -2.474,4.387 -6.917,6.851 -4.443,2.464 -10.148,2.464zM85.945,47.65q4.19,0 7.472,-1.873 3.332,-1.873 5.15,-5.225 1.868,-3.401 1.868,-7.64 0,-4.239 -1.868,-7.59 -1.818,-3.352 -5.15,-5.225 -3.282,-1.873 -7.472,-1.873L79.432,18.225l0,29.425z"
      stroke-width="1.2470969"
      fill="#000000"
      stroke="#00000000"/>
  <path
      d="m125.739,25.027q3.888,0 7.018,1.824 3.181,1.774 4.998,4.929 1.868,3.105 1.868,6.95l0,10.991q0,1.084 -0.757,1.824 -0.707,0.69 -1.818,0.69 -1.111,0 -1.868,-0.69 -0.707,-0.739 -0.707,-1.824l0,-1.824q-1.767,2.119 -4.291,3.302 -2.524,1.183 -5.453,1.183 -3.635,0 -6.614,-1.774 -2.928,-1.774 -4.645,-4.88 -1.666,-3.154 -1.666,-6.999 0,-3.844 1.818,-6.95 1.818,-3.154 4.998,-4.929 3.231,-1.824 7.119,-1.824zM125.739,47.946q2.524,0 4.544,-1.183 2.07,-1.232 3.231,-3.302 1.161,-2.119 1.161,-4.732 0,-2.612 -1.161,-4.732 -1.161,-2.119 -3.231,-3.302 -2.019,-1.232 -4.544,-1.232 -2.524,0 -4.594,1.232 -2.019,1.183 -3.231,3.302 -1.161,2.119 -1.161,4.732 0,2.612 1.161,4.732 1.212,2.07 3.231,3.302 2.07,1.183 4.594,1.183z"
      stroke-width="1.2470969"
      fill="#000000"
      stroke="#00000000"/>
  <path
      d="m150.416,52.185q-1.111,0 -1.868,-0.69 -0.707,-0.739 -0.707,-1.824l0,-21.933q0,-1.134 0.707,-1.824 0.757,-0.69 1.868,-0.69 1.161,0 1.868,0.69 0.707,0.69 0.707,1.824l0,21.933q0,1.084 -0.707,1.824 -0.707,0.69 -1.868,0.69zM150.416,20.837q-1.363,0 -2.373,-0.936 -0.959,-0.986 -0.959,-2.317 0,-1.331 0.959,-2.267 1.01,-0.986 2.373,-0.986 1.363,0 2.322,0.986 1.01,0.936 1.01,2.267 0,1.331 -1.01,2.317 -0.959,0.936 -2.322,0.936z"
      stroke-width="1.2470969"
      fill="#000000"
      stroke="#00000000"/>
  <path
      d="m172.667,52.382q-3.433,0 -6.462,-1.035 -3.029,-1.035 -4.746,-2.711 -0.656,-0.641 -0.656,-1.528 0,-1.183 1.01,-1.922 0.959,-0.69 1.767,-0.69 1.01,0 1.919,0.887 0.959,1.035 2.878,1.824 1.919,0.739 4.089,0.739 2.878,0 4.443,-0.936 1.616,-0.936 1.616,-2.514 0,-1.528 -1.565,-2.514 -1.565,-1.035 -5.301,-1.725 -9.694,-1.824 -9.694,-7.787 0,-2.415 1.464,-4.091 1.464,-1.676 3.837,-2.514 2.373,-0.838 5.049,-0.838 3.282,0 5.856,1.035 2.625,1.035 4.14,2.859 0.656,0.789 0.656,1.577 0,0.838 -0.858,1.528 -0.555,0.394 -1.414,0.394 -1.313,0 -2.373,-0.936 -1.262,-1.134 -2.676,-1.577 -1.414,-0.493 -3.433,-0.493 -2.322,0 -3.837,0.789 -1.464,0.739 -1.464,2.119 0,0.986 0.505,1.676 0.505,0.641 1.919,1.232 1.414,0.542 4.089,1.084 5.503,1.084 7.775,3.007 2.322,1.922 2.322,4.978 0,2.267 -1.262,4.14 -1.262,1.824 -3.736,2.908 -2.423,1.035 -5.856,1.035z"
      stroke-width="1.2470969"
      fill="#000000"
      stroke="#00000000"/>
  <path
      d="m211.137,25.47q1.565,0.591 1.565,1.922 0,0.493 -0.303,1.183L196.95,62.486q-0.606,1.528 -1.969,1.528 -0.505,0 -1.212,-0.296 -1.515,-0.641 -1.515,-1.922 0,-0.591 0.303,-1.183l5.049,-11.09 -11.36,-21.046q-0.252,-0.444 -0.252,-1.035 0,-0.641 0.404,-1.183 0.404,-0.542 1.06,-0.838 0.454,-0.197 1.01,-0.197 1.414,0 2.12,1.38l9.239,17.941 8.128,-17.892q0.656,-1.429 1.969,-1.429 0.656,0 1.212,0.246z"
      stroke-width="1.2470969"
      fill="#000000"
      stroke="#00000000"/>
  <path
      d="m220.379,52.185q-1.06,0 -1.868,-0.739 -0.757,-0.739 -0.757,-1.824l0,-33.368q0,-1.084 0.757,-1.824 0.808,-0.739 1.868,-0.739 1.111,0 1.868,0.739 0.757,0.739 0.757,1.824l0,14.786l16.711,-16.314q0.606,-0.591 1.06,-0.789 0.505,-0.246 1.111,-0.246 1.06,0 1.616,0.641 0.606,0.591 0.606,1.479 0,1.281 -0.959,2.218l-12.874,12.618 13.127,17.448q0.505,0.69 0.505,1.577 0,0.986 -0.656,1.774 -0.656,0.739 -1.666,0.739 -1.414,0 -2.171,-1.084l-12.773,-16.906 -3.635,3.549l0,11.878q0,1.084 -0.757,1.824 -0.757,0.739 -1.868,0.739z"
      stroke-width="1.2470969"
      fill="#000000"
      stroke="#00000000"/>
  <path
      d="m254.052,52.185q-1.111,0 -1.868,-0.69 -0.707,-0.739 -0.707,-1.824l0,-21.933q0,-1.134 0.707,-1.824 0.757,-0.69 1.868,-0.69 1.161,0 1.868,0.69 0.707,0.69 0.707,1.824l0,21.933q0,1.084 -0.707,1.824 -0.707,0.69 -1.868,0.69zM254.052,20.837q-1.363,0 -2.373,-0.936 -0.959,-0.986 -0.959,-2.317 0,-1.331 0.959,-2.267 1.01,-0.986 2.373,-0.986 1.363,0 2.322,0.986 1.01,0.936 1.01,2.267 0,1.331 -1.01,2.317 -0.959,0.936 -2.322,0.936z"
      stroke-width="1.2470969"
      fill="#000000"
      stroke="#00000000"/>
  <path
      d="m278.02,47.256q0.909,0 1.515,0.69 0.656,0.69 0.656,1.774 0,1.084 -0.858,1.774 -0.808,0.69 -2.12,0.69l-0.909,0q-2.474,0 -4.544,-1.232 -2.019,-1.281 -3.181,-3.45 -1.161,-2.169 -1.161,-4.88l0,-12.174l-2.322,0q-1.06,0 -1.717,-0.591 -0.656,-0.591 -0.656,-1.479 0,-0.986 0.656,-1.577 0.656,-0.591 1.717,-0.591l2.322,0l0,-7.097q0,-1.084 0.707,-1.774 0.707,-0.69 1.818,-0.69 1.111,0 1.818,0.69 0.707,0.69 0.707,1.774l0,7.097l4.291,0q1.06,0 1.717,0.591 0.656,0.591 0.656,1.577 0,0.887 -0.656,1.479 -0.656,0.591 -1.717,0.591l-4.291,0l0,12.174q0,1.972 1.111,3.302 1.111,1.331 2.726,1.331z"
      stroke-width="1.2470969"
      fill="#000000"
      stroke="#00000000"/>
</svg>
