<?xml version="1.0" encoding="UTF-8" standalone="no"?>
<svg
   xmlns:dc="http://purl.org/dc/elements/1.1/"
   xmlns:cc="http://creativecommons.org/ns#"
   xmlns:rdf="http://www.w3.org/1999/02/22-rdf-syntax-ns#"
   xmlns:svg="http://www.w3.org/2000/svg"
   xmlns="http://www.w3.org/2000/svg"
   xmlns:sodipodi="http://sodipodi.sourceforge.net/DTD/sodipodi-0.dtd"
   xmlns:inkscape="http://www.inkscape.org/namespaces/inkscape"
   width="62.897469"
   height="62.896469"
   viewBox="0 0 62.897469 62.896469"
   version="1.1"
   id="svg44"
   sodipodi:docname="logo.svg"
   inkscape:version="0.92.3 (2405546, 2018-03-11)">
  <metadata
     id="metadata50">
    <rdf:RDF>
      <cc:Work
         rdf:about="">
        <dc:format>image/svg+xml</dc:format>
        <dc:type
           rdf:resource="http://purl.org/dc/dcmitype/StillImage" />
        <dc:title></dc:title>
      </cc:Work>
    </rdf:RDF>
  </metadata>
  <defs
     id="defs48" />
  <sodipodi:namedview
     pagecolor="#ffffff"
     bordercolor="#666666"
     borderopacity="1"
     objecttolerance="10"
     gridtolerance="10"
     guidetolerance="10"
     inkscape:pageopacity="0"
     inkscape:pageshadow="2"
     inkscape:window-width="640"
     inkscape:window-height="480"
     id="namedview46"
     showgrid="false"
     fit-margin-top="0"
     fit-margin-left="0"
     fit-margin-right="0"
     fit-margin-bottom="0"
     inkscape:zoom="1.2214286"
     inkscape:cx="140.00023"
     inkscape:cy="30.896235"
     inkscape:window-x="67"
     inkscape:window-y="27"
     inkscape:window-maximized="0"
     inkscape:current-layer="svg44" />
  <path
     d="m 28.087235,18.508235 c -0.596,-4.093 -2.248,-9.745 -2.439,-12.439 -0.169,-2.382 1.176,-4.08 3.248,-5.022 0.749,-0.34100003 1.628,-0.52900003 2.552,-0.52900003 0.924,0 1.803,0.188 2.552,0.52900003 2.072,0.942 3.417,2.64 3.248,5.022 -0.191,2.694 -1.843,8.346 -2.439,12.439"
     id="path2"
     inkscape:connector-curvature="0"
     style="fill:#f2f2f2;stroke:#000000;stroke-width:1.03646994" />
  <path
     d="m 22.067235,21.920235 c -2.562,-3.247 -6.819,-7.316 -8.332,-9.553 -1.337,-1.978 -1.022,-4.122 0.302,-5.974 0.478,-0.67 1.146,-1.272 1.946,-1.734 0.8,-0.462 1.655,-0.739 2.474,-0.818 2.265,-0.22 4.279,0.578 5.324,2.726 1.182,2.429 2.577,8.15 4.108,11.992"
     id="path4"
     inkscape:connector-curvature="0"
     style="fill:#f2f2f2;stroke:#000000;stroke-width:1.03646994" />
  <path
     d="m 18.508235,34.807235 c -4.093,0.596 -9.745,2.248 -12.439,2.439 -2.382,0.169 -4.08,-1.176 -5.022,-3.248 -0.34100003,-0.749 -0.52900003,-1.628 -0.52900003,-2.552 0,-0.924 0.188,-1.803 0.52900003,-2.552 0.942,-2.072 2.64,-3.417 5.022,-3.248 2.694,0.191 8.346,1.843 12.439,2.439"
     id="path6"
     inkscape:connector-curvature="0"
     style="fill:#f2f2f2;stroke:#000000;stroke-width:1.03646994" />
  <path
     d="m 18.562235,27.887235 c -3.842,-1.53 -9.563,-2.926 -11.992,-4.108 -2.147,-1.045 -2.946,-3.059 -2.726,-5.324 0.08,-0.819 0.356,-1.674 0.818,-2.474 0.462,-0.8 1.064,-1.467 1.734,-1.946 1.852,-1.323 3.995,-1.639 5.974,-0.302 2.238,1.513 6.307,5.769 9.553,8.332"
     id="path8"
     inkscape:connector-curvature="0"
     style="fill:#f2f2f2;stroke:#000000;stroke-width:1.03646994" />
  <path
     d="m 21.923235,40.828235 c -3.247,2.562 -7.316,6.819 -9.553,8.332 -1.978,1.337 -4.122,1.022 -5.974,-0.302 -0.67,-0.479 -1.272,-1.146 -1.734,-1.946 -0.462,-0.8 -0.739,-1.655 -0.818,-2.474 -0.22,-2.265 0.578,-4.279 2.726,-5.324 2.429,-1.182 8.15,-2.577 11.992,-4.108"
     id="path10"
     inkscape:connector-curvature="0"
     style="fill:#f2f2f2;stroke:#000000;stroke-width:1.03646994" />
  <path
     d="m 27.890235,44.335235 c -1.53,3.842 -2.926,9.563 -4.108,11.992 -1.045,2.147 -3.059,2.946 -5.324,2.726 -0.819,-0.08 -1.674,-0.356 -2.474,-0.818 -0.8,-0.462 -1.467,-1.064 -1.946,-1.734 -1.323,-1.852 -1.639,-3.995 -0.302,-5.974 1.512,-2.238 5.769,-6.307 8.332,-9.553"
     id="path12"
     inkscape:connector-curvature="0"
     style="fill:#f2f2f2;stroke:#000000;stroke-width:1.03646994" />
  <path
     d="m 34.810235,44.388235 c 0.596,4.093 2.248,9.745 2.439,12.439 0.169,2.382 -1.176,4.08 -3.248,5.022 -0.749,0.341 -1.628,0.529 -2.552,0.529 -0.924,0 -1.803,-0.188 -2.552,-0.529 -2.072,-0.942 -3.417,-2.64 -3.248,-5.022 0.191,-2.694 1.843,-8.346 2.439,-12.439"
     id="path14"
     inkscape:connector-curvature="0"
     style="fill:#f2f2f2;stroke:#000000;stroke-width:1.03646994" />
  <path
     d="m 40.830235,40.975235 c 2.562,3.247 6.819,7.316 8.332,9.553 1.337,1.978 1.022,4.122 -0.302,5.974 -0.479,0.67 -1.146,1.272 -1.946,1.734 -0.8,0.462 -1.655,0.739 -2.474,0.818 -2.265,0.22 -4.279,-0.578 -5.324,-2.726 -1.182,-2.429 -2.577,-8.15 -4.108,-11.992"
     id="path16"
     inkscape:connector-curvature="0"
     style="fill:#f2f2f2;stroke:#000000;stroke-width:1.03646994" />
  <path
     d="m 44.337235,35.009235 c 3.842,1.53 9.563,2.926 11.992,4.108 2.147,1.045 2.946,3.059 2.726,5.324 -0.08,0.819 -0.356,1.674 -0.818,2.474 -0.462,0.8 -1.064,1.467 -1.734,1.946 -1.852,1.323 -3.995,1.639 -5.974,0.302 -2.238,-1.513 -6.307,-5.769 -9.553,-8.332"
     id="path18"
     inkscape:connector-curvature="0"
     style="fill:#f2f2f2;stroke:#000000;stroke-width:1.03646994" />
  <path
     d="m 44.389235,28.091235 c 4.093,-0.596 9.745,-2.248 12.439,-2.439 2.382,-0.169 4.08,1.176 5.022,3.248 0.341,0.749 0.529,1.628 0.529,2.552 0,0.924 -0.188,1.803 -0.529,2.552 -0.942,2.072 -2.64,3.417 -5.022,3.248 -2.694,-0.191 -8.346,-1.843 -12.439,-2.439"
     id="path20"
     inkscape:connector-curvature="0"
     style="fill:#f2f2f2;stroke:#000000;stroke-width:1.03646994" />
  <path
     d="m 35.008235,18.562235 c 1.53,-3.842 2.926,-9.563 4.108,-11.992 1.045,-2.147 3.059,-2.946 5.324,-2.726 0.819,0.08 1.674,0.356 2.474,0.818 0.8,0.462 1.467,1.064 1.946,1.734 1.323,1.852 1.639,3.995 0.302,5.974 -1.512,2.238 -5.769,6.307 -8.332,9.553"
     id="path22"
     inkscape:connector-curvature="0"
     style="fill:#f2f2f2;stroke:#000000;stroke-width:1.03646994" />
  <path
     d="m 40.979235,22.071235 c 3.247,-2.562 7.316,-6.819 9.553,-8.332 1.978,-1.337 4.122,-1.022 5.974,0.302 0.67,0.479 1.272,1.146 1.734,1.946 0.462,0.8 0.739,1.655 0.818,2.474 0.22,2.265 -0.578,4.279 -2.726,5.324 -2.429,1.182 -8.15,2.577 -11.992,4.108"
     id="path24"
     inkscape:connector-curvature="0"
     style="fill:#f2f2f2;stroke:#000000;stroke-width:1.03646994" />
  <path
     d="m 44.698235,31.448235 c 0,7.318 -5.932,13.25 -13.25,13.25 -7.318,0 -13.25,-5.932 -13.25,-13.25 0,-7.318 5.932,-13.25 13.25,-13.25 7.318,0 13.25,5.932 13.25,13.25 z"
     id="path26"
     inkscape:connector-curvature="0"
     style="fill:#ffd800;stroke:#020000;stroke-width:1.24377513" />
</svg>
